<svg xmlns="http://www.w3.org/2000/svg" width="888" height="710.807" viewBox="0 0 888 710.807"><defs><style>.a{fill:#ccc;}.b{fill:#2f2e41;}.c{fill:#6d7484;}.d{fill:#47b2d4;}.e{fill:#ffcb63;}.f{fill:#fff;}.g{fill:#261c18;}.h{fill:#e6e6e6;}.i{fill:#361515;}.j{fill:#e2e2e2;}</style></defs><g transform="translate(-512 -185)"><g transform="translate(512 185)"><path class="a" d="M600.936,699.4A260.064,260.064,0,1,1,784.83,623.233,260.064,260.064,0,0,1,600.936,699.4Zm0-518.129c-142.3,0-258.064,115.768-258.064,258.065S458.64,697.4,600.936,697.4,859,581.637,859,439.34,743.232,181.275,600.936,181.275Z" transform="translate(-156 -94.596)"/><rect class="b" width="262" height="195" transform="translate(541.5 381.807) rotate(90)"/><path class="c" d="M0,0H262V104H0Z" transform="translate(313 373.807)"/><path class="c" d="M0,0H262V104H0Z" transform="translate(313 489.807)"/><path class="c" d="M0,0H262V104H0Z" transform="translate(313 605.807)"/><rect class="d" width="262" height="16" transform="translate(313 417.904)"/><path class="d" d="M0,0H262V16H0Z" transform="translate(313 533.904)"/><path class="d" d="M0,0H262V16H0Z" transform="translate(313 649.904)"/><circle class="e" cx="6" cy="6" r="6" transform="translate(518 382.807)"/><circle class="e" cx="6" cy="6" r="6" transform="translate(539 382.807)"/><circle class="e" cx="6" cy="6" r="6" transform="translate(560 382.807)"/><circle class="e" cx="6" cy="6" r="6" transform="translate(518 496.807)"/><circle class="e" cx="6" cy="6" r="6" transform="translate(539 496.807)"/><circle class="e" cx="6" cy="6" r="6" transform="translate(560 496.807)"/><circle class="e" cx="6" cy="6" r="6" transform="translate(518 610.807)"/><circle class="e" cx="6" cy="6" r="6" transform="translate(539 610.807)"/><circle class="e" cx="6" cy="6" r="6" transform="translate(560 610.807)"/><rect class="f" width="888" height="2" transform="translate(0 708.807)"/><path class="g" d="M397.879,365.661V551.653a14.675,14.675,0,0,1-14.669,14.672H310.928a14.677,14.677,0,0,1-14.678-14.674V365.661a14.677,14.677,0,0,1,14.678-14.672H319.7a6.978,6.978,0,0,0,6.455,9.606h41.208a6.978,6.978,0,0,0,6.455-9.606h9.392a14.675,14.675,0,0,1,14.673,14.67Z" transform="translate(-156 -94.596)"/><rect class="f" width="92" height="128" transform="translate(145.064 291.91)"/><rect class="h" width="36.72" height="2.098" transform="translate(171.186 379.927)"/><rect class="d" width="56.817" height="2.098" transform="translate(171.149 387.632)"/><rect class="h" width="44.588" height="2.098" transform="translate(171.149 394.89)"/><rect class="h" width="26.228" height="2.098" transform="translate(171.149 402.149)"/><rect class="h" width="39.343" height="2.098" transform="translate(171.149 409.407)"/><rect class="h" width="4.197" height="4.197" transform="translate(154.533 379.324)"/><path class="d" d="M0,0H4.2V4.2H0Z" transform="translate(154.533 386.582)"/><rect class="h" width="4.197" height="4.197" transform="translate(154.533 393.841)"/><rect class="h" width="4.197" height="4.197" transform="translate(154.533 401.1)"/><rect class="h" width="4.197" height="4.197" transform="translate(154.533 408.358)"/><rect class="h" width="36.998" height="36.998" transform="translate(172.751 307.91)"/><path class="g" d="M0,0H245.884V157.475H0Z" transform="translate(321.111 0.139)"/><rect class="f" width="203.861" height="77.035" transform="translate(339.647 44.195)"/><rect class="h" width="48.927" height="2.796" transform="translate(376.789 57.542)"/><path class="d" d="M0,0H75.705V2.8H0Z" transform="translate(376.74 67.807)"/><rect class="h" width="59.411" height="2.796" transform="translate(376.74 77.479)"/><rect class="h" width="34.948" height="2.796" transform="translate(376.74 87.151)"/><rect class="h" width="52.422" height="2.796" transform="translate(376.74 96.822)"/><rect class="h" width="5.592" height="5.592" transform="translate(354.601 56.738)"/><path class="d" d="M0,0H5.592V5.592H0Z" transform="translate(354.601 66.409)"/><rect class="h" width="5.592" height="5.592" transform="translate(354.601 76.081)"/><rect class="h" width="5.592" height="5.592" transform="translate(354.601 85.753)"/><rect class="h" width="5.592" height="5.592" transform="translate(354.601 95.424)"/><rect class="h" width="50.059" height="50.059" transform="translate(483.445 53.847)"/><path class="d" d="M0,0H245.884V10.446H0Z" transform="translate(321.006)"/><circle class="f" cx="2.097" cy="2.097" r="2.097" transform="translate(326.671 3.244)"/><circle class="f" cx="2.097" cy="2.097" r="2.097" transform="translate(334.02 3.244)"/><circle class="f" cx="2.097" cy="2.097" r="2.097" transform="translate(341.369 3.244)"/><path class="g" d="M0,0H60V31H0Z" transform="translate(671.648 294.807)"/><path class="g" d="M0,0H60V31H0Z" transform="translate(671.648 405.807)"/><circle class="i" cx="50" cy="50" r="50" transform="translate(651.648 315.807)"/><circle class="f" cx="39" cy="39" r="39" transform="translate(662.648 326.807)"/><rect class="j" width="30.247" height="1.728" transform="translate(688.877 355.122)"/><rect class="d" width="46.801" height="1.728" transform="translate(688.846 361.468)"/><rect class="j" width="36.728" height="1.728" transform="translate(688.846 367.447)"/><rect class="j" width="21.605" height="1.728" transform="translate(688.846 373.426)"/><rect class="j" width="32.407" height="1.728" transform="translate(688.846 379.405)"/><rect class="j" width="3.457" height="3.457" transform="translate(675.16 354.625)"/><rect class="d" width="3.457" height="3.457" transform="translate(675.16 360.604)"/><rect class="j" width="3.457" height="3.457" transform="translate(675.16 366.583)"/><rect class="j" width="3.457" height="3.457" transform="translate(675.16 372.562)"/><rect class="j" width="3.457" height="3.457" transform="translate(675.16 378.541)"/></g></g></svg>