<svg xmlns="http://www.w3.org/2000/svg" width="272.539" height="296.697" viewBox="0 0 272.539 296.697"><defs><style>.a{fill:#6a2f1c;}.b{fill:#fff;}.c{fill:#8d8d8d;}</style></defs><g transform="translate(-611.258 -309.92)"><path class="a" d="M479.8,331.154h-166a5.006,5.006,0,0,1-5-5v-56a5.006,5.006,0,0,1,5-5h166a5.006,5.006,0,0,1,5,5v56a5.006,5.006,0,0,1-5,5Z" transform="translate(360 90)"/><rect class="b" width="44" height="5" transform="translate(694.797 370.154)"/><circle class="b" cx="3" cy="3" r="3" transform="translate(793.797 370.154)"/><circle class="b" cx="3" cy="3" r="3" transform="translate(803.797 370.154)"/><circle class="b" cx="3" cy="3" r="3" transform="translate(813.797 370.154)"/><path class="a" d="M479.8,402.154h-166a5.006,5.006,0,0,1-5-5v-56a5.006,5.006,0,0,1,5-5h166a5.006,5.006,0,0,1,5,5v56a5.006,5.006,0,0,1-5,5Z" transform="translate(360 90)"/><rect class="b" width="44" height="5" transform="translate(694.797 441.154)"/><circle class="b" cx="3" cy="3" r="3" transform="translate(793.797 441.154)"/><circle class="b" cx="3" cy="3" r="3" transform="translate(803.797 441.154)"/><circle class="b" cx="3" cy="3" r="3" transform="translate(813.797 441.154)"/><path class="a" d="M479.8,473.154h-166a5.006,5.006,0,0,1-5-5v-56a5.006,5.006,0,0,1,5-5h166a5.006,5.006,0,0,1,5,5v56a5.006,5.006,0,0,1-5,5Z" transform="translate(360 90)"/><rect class="b" width="44" height="5" transform="translate(694.797 512.154)"/><circle class="b" cx="3" cy="3" r="3" transform="translate(793.797 512.154)"/><circle class="b" cx="3" cy="3" r="3" transform="translate(803.797 512.154)"/><circle class="b" cx="3" cy="3" r="3" transform="translate(813.797 512.154)"/><path class="c" d="M168,297.234H0V231H2v64.234H168Z" transform="translate(611.258 309.383)"/><path class="c" d="M105,0H273V66.234h-2V2H105Z" transform="translate(610.797 309.92)"/></g></svg>