<svg xmlns="http://www.w3.org/2000/svg" width="600.518" height="664.405" viewBox="0 0 600.518 664.405"><defs><style>.a{fill:#f2f2f2;}.b{fill:#dbdbdb;}.c{fill:#c9c8db;}.d{opacity:0.3;}.e{opacity:0.1;}.f{fill:#f4f4fb;}</style></defs><g transform="translate(-462 -202.982)"><g transform="translate(462 203.013)"><circle class="a" cx="138.925" cy="138.925" r="138.925" transform="translate(0 386.524)"/><path class="b" d="M408.979,700.067a293.535,293.535,0,1,1,207.56-85.974,293.535,293.535,0,0,1-207.56,85.974Zm0-584.828c-160.62,0-291.294,130.673-291.294,291.294S248.359,697.827,408.979,697.827s291.293-130.675,291.293-291.3S569.6,115.238,408.979,115.238Z" transform="translate(-102 -112.998)"/><path class="c" d="M459.908,386.443l-.033.017L315.2,467.019,156.779,387.808l-2.73-1.365L162.271,222,305.334,120.05l1.579.987,148.062,92.744Z"/><path class="d" d="M459.875,386.46,315.2,467.019,156.779,387.808l140.333-98.384Z"/><path class="e" d="M459.908,386.443l-162.8-97.019,9.8-168.387,148.062,92.744Z"/><path class="a" d="M160.165,272.745l-.8-1.138L304.021,169.5l152.813,95.809-.74,1.181L304.066,171.173Z"/><path class="a" d="M157.361,328.61l-.782-1.152,143.926-97.715.377.214,156.081,88.46-.688,1.212-155.7-88.247Z"/><path class="a" d="M212.276,415.965l-.734-1.184L356.6,324.9V152.594h1.393V325.676Z"/><path class="a" d="M269.209,444.428l-.74-1.18,139.669-87.6V184.879h1.393V356.416Z"/><path class="a" d="M407.612,415.982,245.176,325.73l.023-.434,8.551-169.015,1.391.071-8.529,168.581,161.677,89.831Z"/><path class="a" d="M356.507,444.455,195.9,360.288l.025-.447,9.468-169.1,1.391.078-9.442,168.651,159.817,83.75Z"/><circle class="f" cx="56.018" cy="56.018" r="56.018" transform="translate(431.339 7.843)"/></g></g></svg>