<svg xmlns="http://www.w3.org/2000/svg" width="768.482" height="484.776" viewBox="0 0 768.482 484.776"><defs><style>.a{fill:#e6e6e6;}.b,.c{fill:#ccc;}.c{stroke:#fff;}.d{fill:#63ff92;}.e{fill:#fff;}</style></defs><g transform="translate(-22.373 0)"><path class="a" d="M375.537,314.457a8,8,0,0,0,0,16H476.1v-3.49a14.978,14.978,0,0,1,6.741-12.511Z" transform="translate(-204.572 -97.181)"/><path class="a" d="M467.041,296.457h-34a8,8,0,0,1,0-16h34a8,8,0,0,1,0,16Z" transform="translate(-204.572 -97.181)"/><path class="a" d="M390.786,239.457h-132a8,8,0,0,1,0-16h132a8,8,0,0,1,0,16Z" transform="translate(-204.572 -97.181)"/><path class="a" d="M333.286,205.457h-17a8,8,0,0,1,0-16h17a8,8,0,0,1,0,16Z" transform="translate(-204.572 -97.181)"/><path class="b" d="M475.092,475.351H350.654a17.019,17.019,0,0,1-17-17V261.511a17.019,17.019,0,0,1,17-17H549.428a17.019,17.019,0,0,1,17,17V310.3h-2V261.511a15.017,15.017,0,0,0-15-15H350.654a15.017,15.017,0,0,0-15,15v196.84a15.017,15.017,0,0,0,15,15H475.092Z" transform="translate(-204.572 -97.181)"/><path class="b" d="M334.654,357.515H243.945a17.019,17.019,0,0,1-17-17V180.457a17.019,17.019,0,0,1,17-17H405.626a17.019,17.019,0,0,1,17,17v65.055h-2V180.457a15.017,15.017,0,0,0-15-15H243.945a15.017,15.017,0,0,0-15,15V340.516a15.017,15.017,0,0,0,15,15h90.709Z" transform="translate(-204.572 -97.181)"/><path class="a" d="M739.536,314.457a14.977,14.977,0,0,1,6.74,12.51v3.49h100.56a8,8,0,0,0,0-16Z" transform="translate(-204.572 -97.181)"/><path class="a" d="M747.331,288.457a8.009,8.009,0,0,1,8-8h34a8,8,0,0,1,0,16h-34A8.009,8.009,0,0,1,747.331,288.457Z" transform="translate(-204.572 -97.181)"/><path class="a" d="M823.587,231.457a8.009,8.009,0,0,1,8-8h132a8,8,0,0,1,0,16h-132a8.009,8.009,0,0,1-8-8Z" transform="translate(-204.572 -97.181)"/><path class="a" d="M881.087,197.457a8.009,8.009,0,0,1,8-8h17a8,8,0,0,1,0,16h-17A8.009,8.009,0,0,1,881.087,197.457Z" transform="translate(-204.572 -97.181)"/><path class="b" d="M747.28,475.351H871.718a17.019,17.019,0,0,0,17-17V261.511a17.019,17.019,0,0,0-17-17H672.945a17.019,17.019,0,0,0-17,17V310.3h2V261.511a15.017,15.017,0,0,1,15-15H871.718a15.017,15.017,0,0,1,15,15v196.84a15.017,15.017,0,0,1-15,15H747.28Z" transform="translate(-204.572 -97.181)"/><path class="b" d="M887.718,357.515h90.709a17.019,17.019,0,0,0,17-17V180.457a17.019,17.019,0,0,0-17-17H816.746a17.019,17.019,0,0,0-17,17v65.055h2V180.457a15.017,15.017,0,0,1,15-15H978.428a15.017,15.017,0,0,1,15,15V340.516a15.017,15.017,0,0,1-15,15h-90.71Z" transform="translate(-204.572 -97.181)"/><path class="c" d="M730.856,309.967H491.1a17.034,17.034,0,0,0-17,17v237.49a17.018,17.018,0,0,0,17,17H730.856a17.018,17.018,0,0,0,17-17V326.967a17.018,17.018,0,0,0-17-17Zm15,254.49a15.018,15.018,0,0,1-15,15H491.1a15.018,15.018,0,0,1-15-15V326.967a15.023,15.023,0,0,1,15-15H730.856a15.018,15.018,0,0,1,15,15Z" transform="translate(-204.572 -97.181)"/><path class="b" d="M711.976,402.457h-202a8,8,0,1,1,0-16h202a8,8,0,0,1,0,16Z" transform="translate(-204.572 -97.181)"/><path class="d" d="M654.476,368.457h-87a8,8,0,0,1,0-16h87a8,8,0,0,1,0,16Z" transform="translate(-204.572 -97.181)"/><path class="b" d="M596.476,450.457h-87a8,8,0,1,1,0-16h87a8,8,0,0,1,0,16Z" transform="translate(-204.572 -97.181)"/><path class="b" d="M596.476,485.457h-87a8,8,0,1,1,0-16h87a8,8,0,0,1,0,16Z" transform="translate(-204.572 -97.181)"/><path class="b" d="M596.476,520.457h-87a8,8,0,1,1,0-16h87a8,8,0,1,1,0,16Z" transform="translate(-204.572 -97.181)"/><circle class="d" cx="14.929" cy="14.929" r="14.929" transform="translate(485.48 330.276)"/><path class="e" d="M703.5,448.081a1.549,1.549,0,0,1-.932-.31l-.017-.013-3.509-2.684a1.559,1.559,0,1,1,1.9-2.475l2.273,1.743,5.37-7.006a1.559,1.559,0,0,1,2.185-.289h0l-.033.046.034-.046a1.56,1.56,0,0,1,.288,2.186l-6.316,8.237a1.56,1.56,0,0,1-1.24.608Z" transform="translate(-204.572 -97.181)"/><path class="b" d="M324.786,143.59a23.2,23.2,0,1,1,23.2-23.2,23.2,23.2,0,0,1-23.2,23.2Zm0-44.409a21.2,21.2,0,1,0,21.2,21.2,21.2,21.2,0,0,0-21.2-21.2Z" transform="translate(-204.572 -97.181)"/><path class="b" d="M322.585,128.856a2.3,2.3,0,0,1-1.385-.46l-.025-.019-5.218-3.992a2.319,2.319,0,1,1,2.822-3.681l3.38,2.592,7.987-10.42a2.318,2.318,0,0,1,3.25-.429h0l-.05.069.051-.069a2.321,2.321,0,0,1,.429,3.251l-9.394,12.251a2.319,2.319,0,0,1-1.845.9Z" transform="translate(-204.572 -97.181)"/><path class="b" d="M471.982,224.59a23.2,23.2,0,1,1,23.2-23.2,23.2,23.2,0,0,1-23.2,23.2Zm0-44.409a21.2,21.2,0,1,0,21.2,21.2,21.2,21.2,0,0,0-21.2-21.2Z" transform="translate(-204.572 -97.181)"/><path class="b" d="M469.781,209.856a2.3,2.3,0,0,1-1.385-.46l-.025-.019-5.218-3.992a2.319,2.319,0,1,1,2.822-3.681l3.38,2.592,7.987-10.42a2.318,2.318,0,0,1,3.25-.429h0l-.05.069.051-.069a2.321,2.321,0,0,1,.429,3.251l-9.394,12.251a2.319,2.319,0,0,1-1.845.9Z" transform="translate(-204.572 -97.181)"/><circle class="d" cx="14.929" cy="14.929" r="14.929" transform="translate(485.48 365.276)"/><path class="e" d="M703.5,483.081a1.548,1.548,0,0,1-.932-.31l-.017-.013-3.509-2.684a1.559,1.559,0,1,1,1.9-2.475l2.273,1.743,5.37-7.006a1.559,1.559,0,0,1,2.185-.289h0l-.033.046.034-.046a1.56,1.56,0,0,1,.288,2.186l-6.316,8.237a1.559,1.559,0,0,1-1.24.608Z" transform="translate(-204.572 -97.181)"/><circle class="d" cx="14.929" cy="14.929" r="14.929" transform="translate(485.48 400.346)"/><path class="e" d="M703.5,518.152a1.549,1.549,0,0,1-.932-.31l-.017-.012-3.509-2.684a1.559,1.559,0,0,1,1.9-2.475l2.273,1.743,5.37-7.006a1.558,1.558,0,0,1,2.185-.289h0l-.033.046.034-.046a1.56,1.56,0,0,1,.288,2.186l-6.316,8.237a1.559,1.559,0,0,1-1.24.608Z" transform="translate(-204.572 -97.181)"/><path class="d" d="M611,289.59c-15.749-.269-22.906-12.218-22.906-23.207s7.159-22.936,22.873-23.2H611c15.716.268,22.873,12.217,22.872,23.206S626.712,289.324,611,289.59Zm-.016-44.409c-14.352.251-20.889,11.165-20.89,21.2S596.633,287.345,611,287.59c14.33-.243,20.872-11.162,20.873-21.2s-6.537-20.951-20.889-21.206Z" transform="translate(-204.572 -97.181)"/><path class="d" d="M616.19,267.646c4.014,6.973-7,9.7-11.22,5.5l1.056-2.256c6.854,5.92,12.893-4.334,2.424-3.36v-2.472c9.587.773,4.2-8.877-2.184-3.168l-1.032-2.256c5.2-5.4,16.889,1.13,8.64,6.528A4.112,4.112,0,0,1,616.19,267.646Z" transform="translate(-204.572 -97.181)"/><path class="b" d="M751.982,224.59a23.2,23.2,0,1,1,23.2-23.2,23.2,23.2,0,0,1-23.2,23.2Zm0-44.409a21.2,21.2,0,1,0,21.2,21.2,21.2,21.2,0,0,0-21.2-21.2Z" transform="translate(-204.572 -97.181)"/><path class="b" d="M758.426,206.594H756v3.336h-3.024v-3.336h-7.44v-2.3l7.992-11.448H756V204.17h2.424Zm-5.448-2.424v-6.5l-4.512,6.5Z" transform="translate(-204.572 -97.181)"/><path class="b" d="M897.587,143.59a23.2,23.2,0,1,1,23.2-23.2A23.2,23.2,0,0,1,897.587,143.59Zm0-44.409a21.2,21.2,0,1,0,21.2,21.2,21.2,21.2,0,0,0-21.2-21.2Z" transform="translate(-204.572 -97.181)"/><path class="b" d="M901.043,118.6a4.765,4.765,0,0,1,1.9,1.92,5.862,5.862,0,0,1,.672,2.844,5.663,5.663,0,0,1-.768,2.964,5.142,5.142,0,0,1-2.208,1.992,7.469,7.469,0,0,1-3.336.708,9.612,9.612,0,0,1-3.168-.54,7.358,7.358,0,0,1-2.568-1.452l1.032-2.256a7.77,7.77,0,0,0,4.752,1.776,3.094,3.094,0,0,0,2.436-5.364,3.214,3.214,0,0,0-2.34-.852,4.856,4.856,0,0,0-1.9.372,4.482,4.482,0,0,0-1.56,1.092h-1.872V111.746h10.7v2.4h-7.68V118.8a5.306,5.306,0,0,1,3.072-.888,5.709,5.709,0,0,1,2.832.684Z" transform="translate(-204.572 -97.181)"/></g></svg>