<?xml version="1.0" encoding="UTF-8"?>
<svg xmlns="http://www.w3.org/2000/svg" version="1.1" width="500" height="500" viewBox="0 0 500 500"><rect x="0" y="0" width="500" height="500" fill="#ffffff"/><g transform="scale(23.81)"><g transform="translate(0,0)"><g><g transform="translate(3.5,3.5)"><path fill-rule="evenodd" d="M-3.5 -3.5L-3.5 3.5L3.5 3.5L3.5 -3.5ZM-2.5 -2.5L-2.5 2.5L2.5 2.5L2.5 -2.5Z" fill="#000000"/><path fill-rule="evenodd" d="M-1.5 -1.5L-1.5 1.5L1.5 1.5L1.5 -1.5Z" fill="#000000"/></g></g><g><g transform="translate(17.5,3.5)"><g transform="rotate(90)"><path fill-rule="evenodd" d="M-3.5 -3.5L-3.5 3.5L3.5 3.5L3.5 -3.5ZM-2.5 -2.5L-2.5 2.5L2.5 2.5L2.5 -2.5Z" fill="#000000"/><path fill-rule="evenodd" d="M-1.5 -1.5L-1.5 1.5L1.5 1.5L1.5 -1.5Z" fill="#000000"/></g></g></g><g><g transform="translate(3.5,17.5)"><g transform="rotate(-90)"><path fill-rule="evenodd" d="M-3.5 -3.5L-3.5 3.5L3.5 3.5L3.5 -3.5ZM-2.5 -2.5L-2.5 2.5L2.5 2.5L2.5 -2.5Z" fill="#000000"/><path fill-rule="evenodd" d="M-1.5 -1.5L-1.5 1.5L1.5 1.5L1.5 -1.5Z" fill="#000000"/></g></g></g><path fill-rule="evenodd" d="M8 0L8 1L11 1L11 2L9 2L9 3L10 3L10 5L11 5L11 6L10 6L10 7L9 7L9 6L8 6L8 8L9 8L9 9L8 9L8 14L9 14L9 16L8 16L8 18L10 18L10 19L8 19L8 21L9 21L9 20L10 20L10 21L11 21L11 20L12 20L12 21L14 21L14 20L15 20L15 21L17 21L17 20L18 20L18 21L19 21L19 20L18 20L18 18L19 18L19 19L21 19L21 18L20 18L20 17L19 17L19 15L17 15L17 14L21 14L21 12L19 12L19 11L20 11L20 10L19 10L19 9L16 9L16 10L15 10L15 8L14 8L14 10L12 10L12 11L13 11L13 12L11 12L11 10L10 10L10 11L9 11L9 9L11 9L11 8L12 8L12 9L13 9L13 8L12 8L12 7L13 7L13 5L12 5L12 4L13 4L13 3L12 3L12 2L13 2L13 0ZM11 3L11 4L12 4L12 3ZM11 6L11 7L12 7L12 6ZM0 8L0 9L2 9L2 10L1 10L1 11L0 11L0 12L1 12L1 13L2 13L2 12L1 12L1 11L3 11L3 12L4 12L4 13L5 13L5 11L4 11L4 10L6 10L6 11L7 11L7 10L6 10L6 9L7 9L7 8L6 8L6 9L5 9L5 8L3 8L3 9L2 9L2 8ZM20 8L20 9L21 9L21 8ZM14 10L14 12L13 12L13 13L14 13L14 12L15 12L15 10ZM16 10L16 12L18 12L18 11L19 11L19 10ZM6 12L6 13L7 13L7 12ZM9 12L9 13L11 13L11 12ZM11 14L11 15L12 15L12 16L15 16L15 15L16 15L16 17L13 17L13 19L12 19L12 20L14 20L14 19L15 19L15 18L16 18L16 19L17 19L17 18L18 18L18 16L17 16L17 15L16 15L16 14L15 14L15 15L14 15L14 14ZM9 16L9 17L11 17L11 16Z" fill="#1f75ff"/></g></g></svg>
