<?xml version="1.0" encoding="UTF-8"?>
<svg xmlns="http://www.w3.org/2000/svg" version="1.1" width="500" height="500" viewBox="0 0 500 500"><rect x="0" y="0" width="500" height="500" fill="#ffffff"/><g transform="scale(17.241)"><g transform="translate(0,0)"><g><g transform="translate(3.5,3.5)"><path fill-rule="evenodd" d="M-3.5 -3.5L-3.5 3.5L3.5 3.5L3.5 -3.5ZM-2.5 -2.5L-2.5 2.5L2.5 2.5L2.5 -2.5Z" fill="#000000"/><path fill-rule="evenodd" d="M-1.5 -1.5L-1.5 1.5L1.5 1.5L1.5 -1.5Z" fill="#000000"/></g></g><g><g transform="translate(25.5,3.5)"><g transform="rotate(90)"><path fill-rule="evenodd" d="M-3.5 -3.5L-3.5 3.5L3.5 3.5L3.5 -3.5ZM-2.5 -2.5L-2.5 2.5L2.5 2.5L2.5 -2.5Z" fill="#000000"/><path fill-rule="evenodd" d="M-1.5 -1.5L-1.5 1.5L1.5 1.5L1.5 -1.5Z" fill="#000000"/></g></g></g><g><g transform="translate(3.5,25.5)"><g transform="rotate(-90)"><path fill-rule="evenodd" d="M-3.5 -3.5L-3.5 3.5L3.5 3.5L3.5 -3.5ZM-2.5 -2.5L-2.5 2.5L2.5 2.5L2.5 -2.5Z" fill="#000000"/><path fill-rule="evenodd" d="M-1.5 -1.5L-1.5 1.5L1.5 1.5L1.5 -1.5Z" fill="#000000"/></g></g></g><path fill-rule="evenodd" d="M8 0L8 4L10 4L10 3L11 3L11 6L10 6L10 7L9 7L9 5L8 5L8 7L9 7L9 8L10 8L10 7L11 7L11 6L12 6L12 7L13 7L13 6L14 6L14 9L8 9L8 10L6 10L6 11L3 11L3 12L2 12L2 11L1 11L1 9L2 9L2 10L3 10L3 9L2 9L2 8L0 8L0 13L1 13L1 14L5 14L5 16L6 16L6 17L7 17L7 18L6 18L6 19L7 19L7 20L6 20L6 21L7 21L7 20L8 20L8 22L9 22L9 23L8 23L8 25L9 25L9 26L10 26L10 27L8 27L8 29L9 29L9 28L10 28L10 27L11 27L11 28L12 28L12 29L13 29L13 27L11 27L11 26L12 26L12 25L11 25L11 24L14 24L14 25L13 25L13 26L14 26L14 27L17 27L17 26L14 26L14 25L15 25L15 23L14 23L14 22L15 22L15 19L14 19L14 18L15 18L15 16L14 16L14 17L12 17L12 19L11 19L11 20L12 20L12 21L13 21L13 23L12 23L12 22L11 22L11 21L10 21L10 20L8 20L8 17L7 17L7 16L8 16L8 15L9 15L9 14L8 14L8 13L9 13L9 12L6 12L6 11L9 11L9 10L12 10L12 11L13 11L13 10L14 10L14 12L12 12L12 13L11 13L11 11L10 11L10 13L11 13L11 14L12 14L12 15L13 15L13 14L14 14L14 15L15 15L15 14L16 14L16 16L17 16L17 13L15 13L15 14L14 14L14 12L15 12L15 11L17 11L17 12L18 12L18 13L20 13L20 12L21 12L21 13L22 13L22 15L18 15L18 18L17 18L17 17L16 17L16 19L17 19L17 20L16 20L16 21L17 21L17 20L18 20L18 23L17 23L17 22L16 22L16 23L17 23L17 24L16 24L16 25L18 25L18 23L19 23L19 21L20 21L20 24L19 24L19 26L18 26L18 27L20 27L20 28L19 28L19 29L21 29L21 27L22 27L22 29L26 29L26 28L27 28L27 29L28 29L28 28L27 28L27 27L29 27L29 26L28 26L28 25L29 25L29 24L28 24L28 23L29 23L29 22L28 22L28 23L27 23L27 24L28 24L28 25L25 25L25 24L26 24L26 23L25 23L25 20L21 20L21 19L20 19L20 18L19 18L19 17L21 17L21 18L22 18L22 19L24 19L24 15L25 15L25 16L26 16L26 18L25 18L25 19L26 19L26 18L27 18L27 19L29 19L29 18L27 18L27 17L28 17L28 16L29 16L29 15L25 15L25 14L24 14L24 15L23 15L23 12L22 12L22 11L25 11L25 13L26 13L26 14L28 14L28 12L29 12L29 10L28 10L28 9L29 9L29 8L25 8L25 9L24 9L24 8L23 8L23 9L24 9L24 10L22 10L22 9L21 9L21 5L20 5L20 7L19 7L19 6L18 6L18 5L19 5L19 4L18 4L18 3L17 3L17 4L16 4L16 3L15 3L15 2L16 2L16 1L17 1L17 2L18 2L18 1L17 1L17 0L16 0L16 1L14 1L14 0L12 0L12 2L11 2L11 1L10 1L10 0ZM20 0L20 1L19 1L19 3L20 3L20 4L21 4L21 2L20 2L20 1L21 1L21 0ZM13 1L13 2L12 2L12 3L13 3L13 2L14 2L14 1ZM9 2L9 3L10 3L10 2ZM14 3L14 6L15 6L15 9L14 9L14 10L15 10L15 9L16 9L16 10L17 10L17 11L19 11L19 10L18 10L18 6L17 6L17 5L18 5L18 4L17 4L17 5L16 5L16 6L15 6L15 3ZM12 5L12 6L13 6L13 5ZM16 6L16 7L17 7L17 6ZM4 8L4 10L5 10L5 9L7 9L7 8ZM16 8L16 9L17 9L17 8ZM25 9L25 10L26 10L26 12L27 12L27 10L26 10L26 9ZM20 10L20 11L22 11L22 10ZM1 12L1 13L2 13L2 12ZM6 13L6 14L7 14L7 13ZM3 15L3 16L4 16L4 15ZM6 15L6 16L7 16L7 15ZM10 15L10 18L9 18L9 19L10 19L10 18L11 18L11 15ZM22 15L22 16L21 16L21 17L22 17L22 18L23 18L23 17L22 17L22 16L23 16L23 15ZM1 16L1 17L0 17L0 18L1 18L1 17L2 17L2 16ZM3 17L3 18L2 18L2 20L0 20L0 21L4 21L4 20L5 20L5 19L4 19L4 17ZM3 19L3 20L4 20L4 19ZM18 19L18 20L19 20L19 19ZM13 20L13 21L14 21L14 20ZM9 21L9 22L10 22L10 23L9 23L9 24L10 24L10 23L11 23L11 22L10 22L10 21ZM21 21L21 24L24 24L24 21ZM26 21L26 22L27 22L27 21ZM22 22L22 23L23 23L23 22ZM10 25L10 26L11 26L11 25ZM20 25L20 27L21 27L21 26L22 26L22 27L23 27L23 28L26 28L26 27L25 27L25 26L24 26L24 25ZM14 28L14 29L15 29L15 28ZM16 28L16 29L17 29L17 28Z" fill="#03a592"/></g></g></svg>
